# Blender 4.3.2
# www.blender.org
mtllib panel.mtl
o Cube
v 0.043064 1.081777 -1.396144
v 0.043064 2.033498 -0.742719
v 0.043064 1.328101 -1.373879
v 0.043064 1.557637 -1.308601
v 0.043064 1.754745 -1.204760
v 0.043064 1.905991 -1.069431
v 0.043064 2.001068 -0.911838
v 0.043064 -2.033498 -0.742719
v 0.043064 -1.081777 -1.396144
v 0.043064 -2.001068 -0.911838
v 0.043064 -1.905991 -1.069431
v 0.043064 -1.754745 -1.204760
v 0.043064 -1.557637 -1.308601
v 0.043064 -1.328101 -1.373879
v 0.043064 2.033498 0.742719
v 0.043064 1.081777 1.396144
v 0.043064 2.001068 0.911838
v 0.043064 1.905991 1.069431
v 0.043064 1.754745 1.204760
v 0.043064 1.557637 1.308601
v 0.043064 1.328101 1.373879
v 0.043064 -1.081777 1.396144
v 0.043064 -2.033498 0.742719
v 0.043064 -1.328101 1.373879
v 0.043064 -1.557637 1.308601
v 0.043064 -1.754745 1.204760
v 0.043064 -1.905991 1.069431
v 0.043064 -2.001068 0.911838
v -0.043064 2.033498 -0.742719
v -0.043064 1.081777 -1.396144
v -0.043064 2.001068 -0.911838
v -0.043064 1.905991 -1.069431
v -0.043064 1.754745 -1.204760
v -0.043064 1.557637 -1.308601
v -0.043064 1.328101 -1.373879
v -0.043064 -1.081777 -1.396144
v -0.043064 -2.033498 -0.742719
v -0.043064 -1.328101 -1.373879
v -0.043064 -1.557637 -1.308601
v -0.043064 -1.754745 -1.204760
v -0.043064 -1.905991 -1.069431
v -0.043064 -2.001068 -0.911838
v -0.043064 1.081777 1.396144
v -0.043064 2.033498 0.742719
v -0.043064 1.328101 1.373879
v -0.043064 1.557637 1.308601
v -0.043064 1.754745 1.204760
v -0.043064 1.905991 1.069431
v -0.043064 2.001068 0.911838
v -0.043064 -2.033498 0.742719
v -0.043064 -1.081777 1.396144
v -0.043064 -2.001068 0.911838
v -0.043064 -1.905991 1.069431
v -0.043064 -1.754745 1.204760
v -0.043064 -1.557637 1.308601
v -0.043064 -1.328101 1.373879
vn -0.0000 -1.0000 -0.0000
vn -1.0000 -0.0000 -0.0000
vn -0.0000 -0.0000 1.0000
vn -0.0000 1.0000 -0.0000
vn 1.0000 -0.0000 -0.0000
vn -0.0000 -0.9821 -0.1883
vn -0.0000 -0.8562 -0.5166
vn -0.0000 -0.6668 -0.7452
vn -0.0000 -0.4661 -0.8847
vn -0.0000 -0.2735 -0.9619
vn -0.0000 -0.0900 -0.9959
vn -0.0000 0.9821 0.1883
vn -0.0000 0.8562 0.5166
vn -0.0000 0.6668 0.7452
vn -0.0000 0.4661 0.8847
vn -0.0000 0.2735 0.9619
vn -0.0000 0.0900 0.9959
vn -0.0000 -0.9821 0.1883
vn -0.0000 -0.8562 0.5166
vn -0.0000 -0.6668 0.7452
vn -0.0000 -0.4661 0.8847
vn -0.0000 -0.2735 0.9619
vn -0.0000 -0.0900 0.9959
vn -0.0000 0.9821 -0.1883
vn -0.0000 0.8562 -0.5166
vn -0.0000 0.6668 -0.7452
vn -0.0000 0.4661 -0.8847
vn -0.0000 0.2735 -0.9619
vn -0.0000 0.0900 -0.9959
vn -0.0000 -0.0000 -1.0000
vt 0.125000 0.558503
vt 0.375000 0.558503
vt 0.375000 0.691497
vt 0.125000 0.691497
vt 0.375000 0.058503
vt 0.376993 0.043361
vt 0.382838 0.029251
vt 0.392135 0.017135
vt 0.404251 0.007838
vt 0.418361 0.001993
vt 0.433503 0.000000
vt 0.566497 0.000000
vt 0.581639 0.001993
vt 0.595749 0.007838
vt 0.607865 0.017135
vt 0.617162 0.029251
vt 0.623007 0.043361
vt 0.625000 0.058503
vt 0.625000 0.191497
vt 0.623007 0.206639
vt 0.617162 0.220749
vt 0.607865 0.232865
vt 0.595749 0.242162
vt 0.581639 0.248007
vt 0.566497 0.250000
vt 0.433503 0.250000
vt 0.418361 0.248007
vt 0.404251 0.242162
vt 0.392135 0.232865
vt 0.382838 0.220749
vt 0.376993 0.206639
vt 0.375000 0.191497
vt 0.433503 0.750000
vt 0.566497 0.750000
vt 0.566497 1.000000
vt 0.433503 1.000000
vt 0.625000 0.558503
vt 0.875000 0.558503
vt 0.875000 0.691497
vt 0.625000 0.691497
vt 0.376993 0.543361
vt 0.382838 0.529251
vt 0.392135 0.517135
vt 0.404251 0.507838
vt 0.418361 0.501993
vt 0.433503 0.500000
vt 0.566497 0.500000
vt 0.581639 0.501993
vt 0.595749 0.507838
vt 0.607865 0.517135
vt 0.617162 0.529251
vt 0.623007 0.543361
vt 0.623007 0.706639
vt 0.617162 0.720749
vt 0.607865 0.732865
vt 0.595749 0.742162
vt 0.581639 0.748007
vt 0.418361 0.748007
vt 0.404251 0.742162
vt 0.392135 0.732865
vt 0.382838 0.720749
vt 0.376993 0.706639
vt 0.125000 0.543361
vt 0.375000 0.543361
vt 0.125000 0.529251
vt 0.375000 0.529251
vt 0.125000 0.500000
vt 0.375000 0.500000
vt 0.375000 0.250000
vt 0.404251 0.250000
vt 0.404251 0.500000
vt 0.418361 0.250000
vt 0.418361 0.500000
vt 0.875000 0.706639
vt 0.625000 0.706639
vt 0.875000 0.720749
vt 0.625000 0.720749
vt 0.875000 0.750000
vt 0.625000 0.750000
vt 0.625000 1.000000
vt 0.595749 1.000000
vt 0.595749 0.750000
vt 0.581639 1.000000
vt 0.581639 0.750000
vt 0.375000 0.706639
vt 0.125000 0.706639
vt 0.375000 0.720749
vt 0.125000 0.720749
vt 0.375000 0.750000
vt 0.125000 0.750000
vt 0.375000 1.000000
vt 0.404251 0.750000
vt 0.404251 1.000000
vt 0.418361 0.750000
vt 0.418361 1.000000
vt 0.625000 0.543361
vt 0.875000 0.543361
vt 0.625000 0.529251
vt 0.875000 0.529251
vt 0.625000 0.500000
vt 0.875000 0.500000
vt 0.625000 0.250000
vt 0.595749 0.500000
vt 0.595749 0.250000
vt 0.581639 0.500000
vt 0.581639 0.250000
s 0
usemtl Material
f 37/1/1 8/2/1 23/3/1 50/4/1
f 50/5/2 52/6/2 53/7/2 54/8/2 55/9/2 56/10/2 51/11/2 43/12/2 45/13/2 46/14/2 47/15/2 48/16/2 49/17/2 44/18/2 29/19/2 31/20/2 32/21/2 33/22/2 34/23/2 35/24/2 30/25/2 36/26/2 38/27/2 39/28/2 40/29/2 41/30/2 42/31/2 37/32/2
f 22/33/3 16/34/3 43/35/3 51/36/3
f 2/37/4 29/38/4 44/39/4 15/40/4
f 8/2/5 10/41/5 11/42/5 12/43/5 13/44/5 14/45/5 9/46/5 1/47/5 3/48/5 4/49/5 5/50/5 6/51/5 7/52/5 2/37/5 15/40/5 17/53/5 18/54/5 19/55/5 20/56/5 21/57/5 16/34/5 22/33/5 24/58/5 25/59/5 26/60/5 27/61/5 28/62/5 23/3/5
f 8/2/6 37/1/6 42/63/6 10/64/6
f 10/64/7 42/63/7 41/65/7 11/66/7
f 11/66/8 41/65/8 40/67/8 12/68/8
f 12/68/9 40/69/9 39/70/9 13/71/9
f 13/71/10 39/70/10 38/72/10 14/73/10
f 14/73/11 38/72/11 36/26/11 9/46/11
f 15/40/12 44/39/12 49/74/12 17/75/12
f 17/75/13 49/74/13 48/76/13 18/77/13
f 18/77/14 48/76/14 47/78/14 19/79/14
f 19/79/15 47/80/15 46/81/15 20/82/15
f 20/82/16 46/81/16 45/83/16 21/84/16
f 21/84/17 45/83/17 43/35/17 16/34/17
f 50/4/18 23/3/18 28/85/18 52/86/18
f 52/86/19 28/85/19 27/87/19 53/88/19
f 53/88/20 27/87/20 26/89/20 54/90/20
f 54/91/21 26/89/21 25/92/21 55/93/21
f 55/93/22 25/92/22 24/94/22 56/95/22
f 56/95/23 24/94/23 22/33/23 51/36/23
f 29/38/24 2/37/24 7/96/24 31/97/24
f 31/97/25 7/96/25 6/98/25 32/99/25
f 32/99/26 6/98/26 5/100/26 33/101/26
f 33/102/27 5/100/27 4/103/27 34/104/27
f 34/104/28 4/103/28 3/105/28 35/106/28
f 35/106/29 3/105/29 1/47/29 30/25/29
f 36/26/30 30/25/30 1/47/30 9/46/30
