<?xml version="1.0" standalone="no"?>
<!DOCTYPE svg PUBLIC "-//W3C//DTD SVG 20010904//EN"
 "http://www.w3.org/TR/2001/REC-SVG-20010904/DTD/svg10.dtd">
<svg version="1.0" xmlns="http://www.w3.org/2000/svg"
 width="1338.000000pt" height="300.000000pt" viewBox="0 0 1338.000000 300.000000"
 preserveAspectRatio="xMidYMid meet">

<g transform="translate(0.000000,300.000000) scale(0.100000,-0.100000)"
fill="#000000" stroke="none">
<path d="M867 2737 c-3 -8 -22 -22 -42 -31 -43 -21 -90 -15 -128 14 l-24 19
-7 -61 c-7 -69 -40 -149 -79 -191 -15 -15 -24 -34 -21 -42 8 -20 16 -19 47 5
41 32 48 26 41 -36 -6 -51 -5 -56 12 -52 12 2 20 13 22 30 4 32 86 110 131
126 53 19 93 -36 59 -80 -7 -9 -47 -37 -88 -63 -41 -26 -90 -61 -108 -79 -40
-37 -76 -105 -87 -161 l-7 -40 -18 22 c-10 13 -16 32 -13 46 6 29 -19 51 -47
42 -27 -9 -25 -25 14 -108 67 -144 67 -135 13 -242 l-47 -95 33 -82 c63 -156
71 -199 72 -365 0 -84 0 -153 1 -153 0 0 78 40 174 89 l173 89 73 -76 73 -77
140 139 140 140 -48 50 c-96 103 -131 192 -131 342 0 80 4 100 36 180 20 49
42 96 50 105 29 32 4 77 -36 64 -15 -5 -20 -15 -20 -39 0 -21 -8 -40 -23 -54
-42 -39 -54 -24 -47 58 3 39 41 99 77 121 30 19 32 22 18 42 -35 54 -25 147
22 199 15 17 14 18 -31 18 -26 0 -62 -6 -81 -14 -30 -13 -35 -13 -49 3 -22 24
-46 86 -46 116 0 22 -3 25 -21 20 -36 -12 -89 5 -128 41 -28 25 -40 30 -44 21z
m49 -82 c26 -14 59 -25 75 -25 22 0 29 -5 34 -30 4 -16 17 -46 31 -65 l24 -36
-45 -59 c-48 -62 -94 -103 -134 -118 -19 -7 -23 -16 -26 -58 -1 -27 -4 -56 -6
-64 -3 -9 5 -16 18 -18 20 -3 23 2 29 47 6 47 10 53 51 76 24 15 66 55 94 90
42 54 101 105 122 105 3 0 3 -24 0 -54 -3 -30 -1 -68 6 -86 10 -29 8 -34 -14
-52 -43 -34 -69 -96 -70 -164 l0 -62 -27 14 c-27 14 -44 46 -33 64 10 15 -14
50 -34 50 -27 0 -44 -26 -37 -54 5 -19 -1 -30 -25 -50 -37 -31 -73 -33 -116
-6 -29 17 -33 25 -33 60 0 28 -5 43 -16 47 -27 10 -49 -11 -49 -47 0 -37 -42
-80 -80 -80 -22 0 -23 3 -18 38 13 94 65 155 195 233 68 40 108 85 108 122 0
32 -28 74 -59 87 -40 16 -83 5 -137 -36 -36 -28 -48 -32 -63 -24 -19 10 -19
11 -1 57 11 27 21 60 24 74 5 25 8 26 54 21 33 -3 58 1 78 11 16 9 30 16 31
17 1 0 23 -11 49 -25z m-110 -590 c50 -34 118 -34 168 0 l37 25 30 -22 c19
-14 51 -25 83 -28 50 -5 53 -6 45 -27 l-8 -23 -270 0 c-257 0 -271 1 -281 19
-15 30 -14 31 38 31 34 0 57 7 82 25 19 13 36 24 37 25 1 0 19 -11 39 -25z
m68 -312 c7 -183 24 -312 46 -352 9 -18 5 -23 -39 -46 -28 -14 -55 -25 -61
-25 -6 0 -10 77 -10 225 l0 225 -125 0 c-69 0 -125 2 -125 5 0 2 17 38 37 80
l37 75 117 0 116 0 7 -187z m278 60 c4 -146 16 -180 99 -289 l47 -62 -104
-103 -104 -103 -41 39 c-97 94 -119 170 -126 443 l-6 202 116 0 115 0 4 -127z
m-382 -298 l0 -215 -60 -30 c-33 -16 -62 -30 -65 -30 -3 0 -5 48 -5 108 0 114
-21 227 -59 315 -12 27 -21 53 -21 58 0 5 47 9 105 9 l105 0 0 -215z"/>
<path d="M737 2614 c-16 -16 -7 -44 14 -44 15 0 20 5 17 22 -3 22 -19 33 -31
22z"/>
<path d="M1010 1805 c0 -20 -5 -25 -25 -25 -20 0 -25 -5 -25 -25 0 -20 5 -25
25 -25 20 0 25 -5 25 -25 0 -14 5 -25 10 -25 6 0 11 -17 11 -37 1 -30 4 -25
11 25 9 60 11 62 39 62 24 0 29 4 29 25 0 21 -5 25 -30 25 -25 0 -30 4 -30 25
0 18 -5 25 -20 25 -15 0 -20 -7 -20 -25z"/>
<path d="M535 2344 c-20 -25 -35 -48 -32 -50 12 -13 48 10 82 51 36 44 36 45
12 45 -17 0 -36 -14 -62 -46z"/>
<path d="M11677 2290 c-41 -36 -81 -122 -101 -216 -22 -102 -36 -258 -29 -316
6 -47 5 -51 -12 -44 -11 4 -51 12 -89 18 -140 21 -240 -23 -292 -129 -26 -53
-29 -68 -29 -163 0 -80 5 -118 20 -158 38 -103 112 -162 221 -177 l52 -7 7
-46 c17 -119 107 -212 290 -302 66 -32 143 -67 170 -76 62 -21 173 -24 207 -6
58 31 74 112 39 200 -22 56 -89 168 -133 225 -17 21 -28 40 -26 42 2 3 20 0
39 -5 19 -6 67 -11 108 -11 98 -1 152 26 201 99 25 39 40 52 58 52 31 0 207
70 260 104 87 55 103 97 54 146 -35 35 -103 50 -221 50 -85 0 -89 1 -95 23
-17 70 -171 180 -270 193 -44 6 -46 9 -56 48 -35 137 -117 333 -169 404 -64
86 -143 106 -204 52z m153 -202 c20 -42 54 -128 75 -192 l38 -115 -42 -46
c-22 -24 -49 -61 -58 -80 -9 -20 -22 -34 -27 -32 -6 3 -37 13 -68 22 -64 21
-74 36 -85 135 -10 100 40 360 78 407 18 21 46 -9 89 -99z m288 -425 c57 -18
152 -92 152 -119 0 -8 -9 -31 -20 -51 -22 -41 -26 -96 -10 -138 20 -52 -33
-114 -104 -122 -64 -8 -210 38 -232 73 -37 56 6 255 72 333 41 47 59 50 142
24z m-353 -480 c116 -115 265 -338 265 -397 0 -65 -346 85 -438 190 -70 79
-68 139 9 216 66 66 88 65 164 -9z"/>
<path d="M11989 1561 c-20 -16 -24 -28 -24 -74 0 -128 107 -160 171 -51 32 55
31 97 -2 123 -35 28 -112 29 -145 2z m135 -77 c8 -21 8 -20 -10 -38 -31 -31
-46 -8 -24 35 13 23 26 24 34 3z"/>
<path d="M1895 2121 c-79 -21 -162 -97 -183 -169 -16 -54 -15 -145 2 -187 65
-155 273 -214 419 -119 l37 24 0 95 0 95 -110 0 -110 0 0 -35 0 -35 76 0 75 0
-3 -42 c-3 -36 -8 -45 -33 -57 -80 -39 -188 -19 -244 45 -84 95 -51 253 64
305 66 30 139 20 195 -28 l32 -26 25 26 c32 31 26 41 -46 80 -53 29 -143 42
-196 28z"/>
<path d="M2750 1871 l0 -261 35 0 35 0 2 178 3 177 160 -182 c88 -101 165
-183 172 -183 10 0 13 58 13 260 l0 260 -35 0 -35 0 -2 -177 -3 -178 -158 180
c-87 99 -165 181 -173 183 -12 3 -14 -36 -14 -257z"/>
<path d="M4391 2108 c-5 -13 -52 -127 -105 -255 -53 -127 -96 -234 -96 -237 0
-3 17 -6 38 -6 37 0 39 2 56 50 l18 50 110 0 109 0 21 -50 c20 -48 22 -50 59
-50 l38 0 -65 158 c-36 86 -84 203 -107 260 -42 102 -60 121 -76 80z m63 -232
c20 -50 36 -91 36 -93 0 -2 -36 -3 -79 -3 l-80 0 30 73 c17 39 35 83 40 96 5
13 11 22 13 20 2 -2 20 -44 40 -93z"/>
<path d="M5750 1903 c-51 -126 -99 -243 -107 -260 l-13 -33 39 0 c37 0 39 2
59 50 l21 50 109 0 110 0 18 -50 c17 -48 19 -50 56 -50 21 0 38 2 38 3 0 2
-45 114 -101 248 -55 134 -103 250 -106 257 -14 33 -36 -6 -123 -215z m149
-28 c17 -44 31 -83 31 -87 0 -5 -34 -8 -75 -8 -41 0 -75 2 -75 5 0 19 74 185
80 178 4 -4 21 -44 39 -88z"/>
<path d="M2300 1865 l0 -255 165 0 165 0 0 30 0 30 -130 0 -130 0 0 60 0 60
110 0 110 0 0 35 0 35 -110 0 -110 0 0 95 0 95 125 0 125 0 0 35 0 35 -160 0
-160 0 0 -255z"/>
<path d="M3310 1865 l0 -255 165 0 165 0 0 30 0 30 -125 0 -125 0 0 60 0 60
110 0 110 0 0 35 0 35 -110 0 -110 0 0 95 0 95 120 0 120 0 0 35 0 35 -160 0
-160 0 0 -255z"/>
<path d="M3770 1865 l0 -255 35 0 35 0 0 70 0 70 49 0 48 0 47 -70 c46 -70 46
-70 92 -70 34 0 43 3 37 13 -4 6 -27 41 -52 76 l-44 63 36 32 c65 55 84 143
48 221 -37 80 -90 104 -233 105 l-98 0 0 -255z m209 174 c77 -27 83 -167 10
-205 -16 -8 -55 -14 -89 -14 l-60 0 0 115 0 115 54 0 c29 0 67 -5 85 -11z"/>
<path d="M4730 1865 l0 -255 145 0 145 0 0 30 0 30 -110 0 -110 0 0 225 0 225
-35 0 -35 0 0 -255z"/>
<path d="M5120 1865 l0 -255 35 0 35 0 0 255 0 255 -35 0 -35 0 0 -255z"/>
<path d="M5290 2085 l0 -35 75 0 75 0 0 -220 0 -220 35 0 35 0 0 220 0 220 75
0 75 0 0 35 0 35 -185 0 -185 0 0 -35z"/>
<path d="M6050 2085 l0 -35 75 0 75 0 0 -220 0 -220 35 0 35 0 0 220 0 220 80
0 80 0 0 35 0 35 -190 0 -190 0 0 -35z"/>
<path d="M10640 1805 l0 -155 30 0 30 0 0 155 0 155 -30 0 -30 0 0 -155z"/>
<path d="M9833 1873 c-47 -56 -50 -63 -28 -63 12 0 15 -14 15 -64 0 -87 30
-116 106 -101 27 5 34 11 34 29 0 20 -4 22 -31 18 -39 -6 -49 8 -49 71 l0 47
40 0 c33 0 40 3 40 19 0 16 -8 20 -37 23 -35 3 -38 6 -43 37 l-5 35 -42 -51z"/>
<path d="M9428 1844 c-16 -8 -28 -10 -28 -4 0 5 -13 10 -30 10 l-30 0 0 -100
0 -100 30 0 30 0 0 65 c0 52 4 69 20 85 16 16 25 18 40 10 17 -9 20 -21 20
-85 l0 -75 30 0 30 0 0 83 c0 88 -3 98 -37 116 -28 14 -42 14 -75 -5z"/>
<path d="M9618 1848 c-20 -7 -28 -17 -28 -33 0 -24 1 -24 35 -9 34 14 75 6 75
-14 0 -4 -27 -19 -60 -34 -57 -25 -60 -28 -60 -62 0 -47 32 -65 85 -49 21 7
37 7 41 2 7 -12 51 -11 75 1 24 13 25 42 2 38 -16 -3 -19 8 -23 72 -5 67 -7
76 -30 87 -29 15 -74 15 -112 1z m82 -132 c0 -16 -7 -27 -20 -31 -38 -12 -57
24 -22 44 28 17 42 12 42 -13z"/>
<path d="M10316 1829 l-26 -31 0 26 c0 22 -4 26 -30 26 l-30 0 0 -100 0 -100
29 0 c27 0 29 2 33 55 6 67 29 98 69 90 22 -5 27 -2 32 16 14 53 -38 65 -77
18z"/>
<path d="M10440 1848 c-15 -8 -26 -24 -28 -40 l-3 -26 39 19 c40 20 66 18 76
-6 3 -9 -11 -19 -45 -30 -61 -21 -87 -54 -71 -90 14 -30 55 -42 89 -26 19 9
29 9 39 0 22 -18 84 -2 84 21 0 11 -6 19 -12 18 -9 -2 -15 19 -18 69 -3 40
-10 77 -17 84 -18 18 -104 22 -133 7z m90 -127 c0 -24 -25 -45 -45 -37 -20 7
-19 33 3 45 26 16 42 13 42 -8z"/>
<path d="M8530 1693 c0 -95 4 -153 10 -153 6 0 10 25 10 55 l0 56 35 -7 c101
-19 165 96 99 176 -25 29 -30 30 -90 28 l-64 -2 0 -153z m135 112 c29 -28 33
-79 10 -112 -19 -27 -75 -39 -104 -24 -18 10 -21 21 -21 81 0 74 3 78 58 79
22 1 41 -7 57 -24z"/>
<path d="M8760 1835 c-15 -18 -7 -19 22 -4 30 16 67 3 74 -27 7 -29 -7 -44
-42 -44 -31 0 -74 -38 -74 -64 0 -26 29 -56 54 -56 9 0 27 5 39 11 16 9 22 9
25 0 5 -16 27 -14 43 6 12 15 12 16 -3 10 -16 -6 -18 2 -18 73 0 58 -4 83 -16
94 -20 20 -88 21 -104 1z m100 -120 c0 -24 -6 -37 -21 -45 -27 -15 -59 -9 -73
13 -9 15 -6 23 17 43 15 13 39 24 53 24 21 0 24 -5 24 -35z"/>
<path d="M8940 1750 c0 -60 4 -100 10 -100 6 0 10 29 10 68 0 60 3 72 24 91
20 18 31 22 56 16 25 -5 31 -4 28 6 -8 24 -58 23 -84 -2 l-24 -22 0 21 c0 12
-4 22 -10 22 -6 0 -10 -40 -10 -100z"/>
<path d="M9107 1830 c-29 -23 -43 -74 -33 -116 15 -56 76 -89 130 -68 24 9 19
26 -4 19 -61 -20 -118 34 -106 100 9 47 37 68 86 63 28 -2 40 0 40 9 0 22 -83
16 -113 -7z"/>
<path d="M9980 1770 c0 -73 3 -83 25 -105 28 -29 61 -32 93 -9 12 8 22 10 22
5 0 -6 16 -11 35 -11 l35 0 0 100 0 100 -35 0 -35 0 0 -69 c0 -67 -14 -101
-40 -101 -26 0 -40 34 -40 101 l0 69 -30 0 -30 0 0 -80z"/>
<path d="M8830 1497 c0 -30 -3 -56 -6 -60 -3 -3 -19 -1 -35 5 -22 8 -37 6 -66
-9 -95 -46 -67 -208 35 -205 15 0 42 2 60 3 l32 2 0 159 c0 99 -4 158 -10 158
-5 0 -10 -24 -10 -53z m-13 -89 c19 -16 17 -132 -3 -148 -37 -32 -105 -5 -125
49 -13 34 7 88 39 106 27 15 67 12 89 -7z"/>
<path d="M9220 1390 c0 -100 4 -160 10 -160 6 0 10 60 10 160 0 100 -4 160
-10 160 -6 0 -10 -60 -10 -160z"/>
<path d="M10233 1473 c-45 -54 -53 -73 -28 -73 12 0 15 -14 15 -67 0 -78 5
-88 44 -103 45 -17 86 -4 86 26 0 21 -4 24 -20 19 -34 -11 -50 12 -50 71 l0
54 35 0 c31 0 35 3 35 25 0 22 -4 25 -34 25 -33 0 -35 2 -38 37 l-3 37 -42
-51z"/>
<path d="M8945 1441 c-59 -25 -82 -111 -46 -169 28 -43 65 -57 113 -42 35 10
55 26 46 36 -3 2 -19 -3 -36 -11 -52 -26 -103 -2 -117 58 l-7 27 81 0 c79 0
81 1 81 24 0 51 -68 96 -115 77z m71 -33 c7 -5 14 -18 17 -28 5 -18 0 -20 -59
-20 -72 0 -83 14 -37 49 26 21 53 21 79 -1z"/>
<path d="M9318 1439 c-16 -6 -28 -15 -28 -21 0 -6 7 -7 18 -3 54 23 82 14 85
-30 2 -26 -2 -29 -37 -37 -51 -11 -76 -34 -76 -69 0 -41 36 -63 79 -48 26 9
35 9 41 -1 6 -9 12 -9 29 -1 24 13 29 33 6 25 -13 -5 -15 7 -15 73 0 48 -5 86
-12 96 -17 21 -57 28 -90 16z m80 -136 c5 -53 -64 -84 -92 -40 -13 21 0 46 35
64 36 19 54 12 57 -24z"/>
<path d="M9560 1340 l0 -110 30 0 29 0 3 77 c3 71 5 79 27 90 17 8 31 9 43 2
15 -8 18 -23 18 -89 l0 -80 35 0 34 0 3 76 c3 66 6 79 25 91 19 13 24 12 42
-6 17 -17 21 -34 21 -91 l0 -70 30 0 30 0 0 84 c0 69 -4 88 -21 110 -26 33
-84 36 -117 6 l-22 -20 -20 20 c-22 22 -70 26 -103 9 -16 -9 -22 -9 -25 0 -2
6 -17 11 -33 11 l-29 0 0 -110z"/>
<path d="M10003 1440 c-15 -6 -23 -18 -23 -34 0 -25 0 -25 35 -10 27 11 40 12
56 4 28 -16 20 -31 -26 -47 -52 -18 -75 -41 -75 -74 0 -43 38 -64 85 -49 27 9
39 9 50 0 21 -17 85 5 85 30 0 13 -5 17 -20 13 -19 -5 -20 0 -20 70 0 67 -3
78 -22 91 -24 17 -90 20 -125 6z m87 -135 c0 -14 -8 -29 -20 -35 -41 -22 -56
18 -18 44 31 22 38 20 38 -9z"/>
<path d="M10403 1438 c-16 -8 -23 -20 -23 -38 l0 -27 40 19 c32 16 43 18 55 8
24 -20 18 -27 -40 -54 -39 -17 -56 -32 -60 -49 -14 -53 33 -89 88 -68 20 8 33
8 46 -1 26 -16 75 3 79 30 2 16 -1 20 -11 16 -12 -4 -15 9 -19 71 -3 61 -7 80
-23 91 -22 16 -100 17 -132 2z m87 -137 c0 -28 -22 -47 -41 -35 -15 9 -10 42
9 53 27 16 32 13 32 -18z"/>
<path d="M1751 1368 c0 -7 46 -123 102 -258 65 -154 108 -246 118 -248 11 -2
42 61 120 249 57 139 106 256 108 261 1 5 -16 8 -39 6 l-42 -3 -71 -177 c-39
-98 -73 -175 -76 -172 -3 3 -37 82 -76 177 l-70 172 -37 3 c-27 2 -38 -1 -37
-10z"/>
<path d="M2280 1153 c-51 -126 -99 -243 -107 -260 l-13 -33 39 0 c38 0 39 2
61 55 l22 55 108 0 107 0 20 -52 c19 -50 22 -53 58 -56 33 -3 37 -1 33 16 -3
11 -50 128 -104 261 -68 165 -104 241 -114 241 -11 0 -44 -69 -110 -227z m151
-23 c21 -49 34 -91 31 -94 -7 -7 -152 -8 -152 -1 0 13 74 185 79 185 3 0 22
-40 42 -90z"/>
<path d="M2700 1120 l0 -260 150 0 150 0 0 35 0 34 -112 3 -113 3 -3 223 -2
222 -35 0 -35 0 0 -260z"/>
<path d="M3100 1120 l0 -260 165 0 165 0 0 35 0 35 -130 0 -130 0 0 55 0 55
110 0 110 0 0 35 0 35 -110 0 -110 0 0 100 0 100 125 0 125 0 0 35 0 35 -160
0 -160 0 0 -260z"/>
<path d="M3550 1120 l0 -260 35 0 35 0 2 180 3 180 158 -180 c87 -99 165 -180
173 -180 12 0 14 40 14 260 l0 260 -35 0 -35 0 -2 -180 -3 -180 -158 180 c-87
99 -165 180 -173 180 -12 0 -14 -42 -14 -260z"/>
<path d="M4232 1365 c-99 -43 -156 -133 -156 -245 0 -52 6 -78 27 -122 45 -93
122 -138 234 -138 79 0 150 28 196 77 l28 30 -27 22 c-29 23 -44 27 -44 11 0
-6 -21 -24 -47 -41 -43 -27 -54 -30 -114 -27 -54 3 -73 9 -104 32 -99 76 -99
237 1 312 33 26 45 29 110 29 67 0 75 -2 113 -33 40 -32 43 -33 66 -18 14 9
25 20 25 25 0 14 -71 72 -106 87 -43 18 -160 17 -202 -1z"/>
<path d="M4660 1120 l0 -260 40 0 40 0 0 260 0 260 -40 0 -40 0 0 -260z"/>
<path d="M4943 1158 c-50 -123 -99 -240 -107 -260 l-16 -38 39 0 c38 0 39 2
61 55 l22 55 107 0 107 0 23 -55 c22 -52 25 -55 58 -55 44 0 49 -18 -74 281
-67 164 -103 239 -113 239 -11 0 -44 -69 -107 -222z m149 -27 c20 -49 34 -92
30 -95 -3 -3 -39 -6 -80 -6 -66 0 -73 2 -68 18 28 73 71 172 75 172 4 0 22
-40 43 -89z"/>
<path d="M5360 1121 l0 -261 35 0 35 0 2 181 3 182 159 -182 c88 -99 165 -181
173 -181 10 0 13 49 13 260 l0 260 -35 0 -35 0 -2 -179 -3 -178 -155 176 c-86
97 -163 177 -173 179 -16 3 -17 -16 -17 -257z"/>
<path d="M6071 1358 c-5 -13 -52 -127 -105 -255 -53 -127 -96 -234 -96 -237 0
-3 16 -6 36 -6 33 0 37 3 59 55 l25 55 105 0 105 0 25 -55 c23 -52 26 -55 60
-55 44 0 52 -30 -74 275 -100 241 -121 273 -140 223z m63 -221 c20 -48 36 -92
36 -97 0 -6 -32 -10 -75 -10 -44 0 -75 4 -75 10 0 12 72 191 76 187 1 -1 18
-41 38 -90z"/>
<path d="M10600 1340 c0 -30 1 -30 55 -30 54 0 55 0 55 30 0 30 -1 30 -55 30
-54 0 -55 0 -55 -30z"/>
<path d="M875 1200 l-40 -40 264 -263 c279 -278 280 -279 226 -144 -43 107
-89 170 -244 329 -84 87 -157 158 -160 158 -4 0 -25 -18 -46 -40z"/>
<path d="M10055 1110 c-8 -27 12 -52 39 -48 16 2 21 10 21 33 0 25 -4 31 -27
33 -19 2 -28 -2 -33 -18z"/>
<path d="M10414 1116 c-10 -26 1 -51 22 -54 27 -4 47 21 39 48 -7 24 -53 28
-61 6z"/>
<path d="M722 1047 l-42 -42 344 -344 343 -343 7 32 c3 18 6 53 6 79 l0 46
-308 308 -307 307 -43 -43z"/>
<path d="M8828 1044 c-41 -51 -46 -64 -23 -64 12 0 15 -14 15 -68 0 -84 14
-102 83 -102 44 0 47 2 47 26 0 22 -3 25 -22 21 -35 -9 -48 10 -48 69 l0 54
35 0 c31 0 35 3 35 25 0 22 -4 25 -35 25 -32 0 -35 2 -35 30 0 17 -3 30 -7 30
-5 0 -25 -21 -45 -46z"/>
<path d="M9022 1011 c-51 -32 -66 -94 -38 -150 18 -34 54 -51 110 -51 35 0 51
6 75 29 26 24 31 36 31 75 0 36 -6 52 -28 77 -37 41 -102 50 -150 20z m98 -41
c18 -34 8 -101 -17 -117 -19 -13 -24 -12 -42 6 -26 26 -29 92 -5 115 22 22 51
20 64 -4z"/>
<path d="M9240 920 l0 -110 30 0 c29 0 30 1 30 48 0 30 8 59 20 80 18 29 24
33 49 27 25 -5 29 -3 35 21 7 28 -5 44 -34 44 -20 0 -33 -10 -53 -40 l-17 -24
0 32 c0 29 -3 32 -30 32 l-30 0 0 -110z"/>
<path d="M9430 920 l0 -110 30 0 c29 0 30 1 30 48 0 30 8 59 20 80 18 29 24
33 49 27 25 -5 29 -3 35 21 7 28 -5 44 -34 44 -20 0 -33 -10 -53 -40 l-17 -24
0 32 c0 29 -3 32 -30 32 l-30 0 0 -110z"/>
<path d="M9640 1003 c-56 -50 -50 -147 11 -178 33 -17 112 -20 140 -5 10 6 19
19 19 30 0 18 -2 18 -35 4 -41 -17 -81 -10 -95 16 -19 35 -12 40 60 40 68 0
70 1 70 26 0 36 -16 61 -50 79 -45 23 -85 19 -120 -12z m104 -29 c26 -25 19
-34 -29 -34 -46 0 -58 13 -33 38 17 17 44 15 62 -4z"/>
<path d="M9810 1026 c0 -2 20 -51 44 -108 37 -86 48 -103 67 -103 18 0 28 15
60 88 57 133 57 129 18 125 -30 -3 -35 -8 -54 -55 -11 -29 -22 -53 -26 -53 -3
0 -13 25 -23 55 -16 53 -18 55 -52 55 -18 0 -34 -2 -34 -4z"/>
<path d="M10060 920 l0 -110 30 0 30 0 0 110 0 110 -30 0 -30 0 0 -110z"/>
<path d="M10200 1003 c-56 -50 -50 -147 11 -178 33 -17 112 -20 140 -5 10 6
19 19 19 30 0 18 -2 18 -35 4 -41 -17 -81 -10 -95 16 -19 35 -12 40 60 40 68
0 70 1 70 26 0 36 -16 61 -50 79 -45 23 -85 19 -120 -12z m104 -29 c26 -25 19
-34 -29 -34 -46 0 -58 13 -33 38 17 17 44 15 62 -4z"/>
<path d="M10410 911 c0 -94 -3 -123 -15 -135 -10 -10 -13 -24 -9 -41 9 -37 19
-38 53 -9 l31 26 0 139 0 139 -30 0 -30 0 0 -119z"/>
<path d="M10548 1018 c-22 -7 -28 -16 -28 -38 l0 -27 40 19 c33 17 43 18 55 8
22 -19 16 -26 -45 -57 -58 -30 -71 -53 -50 -92 12 -23 67 -29 101 -11 13 7 19
7 19 0 0 -11 49 -14 74 -4 9 3 16 15 16 25 0 12 -5 16 -15 13 -12 -5 -15 5
-15 60 0 58 -3 70 -25 91 -26 27 -76 32 -127 13z m82 -137 c0 -20 -6 -30 -19
-34 -23 -6 -31 0 -31 24 0 16 24 38 43 39 4 0 7 -13 7 -29z"/>
<path d="M565 890 l-39 -40 309 -310 310 -310 60 6 c33 3 67 8 74 10 10 3
-105 125 -324 344 -187 187 -342 340 -345 340 -3 0 -24 -18 -45 -40z"/>
<path d="M417 742 c-20 -21 -37 -43 -37 -49 0 -15 278 -283 331 -320 62 -43
155 -88 219 -107 l55 -16 -265 265 c-146 146 -265 265 -265 265 -1 0 -18 -17
-38 -38z"/>
</g>
</svg>
